<?xml version="1.0" encoding="UTF-8"?>
<svg xmlns="http://www.w3.org/2000/svg" viewBox="0 0 128 128" role="img" aria-label="MoonBun placeholder">
  <rect width="128" height="128" rx="40" fill="url(#b)"/>
  <defs><linearGradient id="b" x1="0" x2="1" y1="0" y2="1"><stop stop-color="#7C5CFC"/><stop offset="1" stop-color="#FF6FB7"/></linearGradient></defs><path fill="#fff" d="M47 55c-8-18-9-34-1-38 8-3 16 12 18 30 2-18 10-33 18-30 8 4 7 20-1 38 12 6 20 18 20 31 0 22-17 32-37 32S27 108 27 86c0-13 8-25 20-31z"/><circle cx="51" cy="82" r="4" fill="url(#b)"/><circle cx="77" cy="82" r="4" fill="url(#b)"/><path d="M55 96c6 5 12 5 18 0" fill="none" stroke="url(#b)" stroke-width="5" stroke-linecap="round"/>
</svg>